<?xml version="1.0" encoding="UTF-8"?>
<svg width="15px" height="15px" viewBox="0 0 15 15" version="1.1" xmlns="http://www.w3.org/2000/svg" xmlns:xlink="http://www.w3.org/1999/xlink">
    <title>Dribbble</title>
    <g id="Page-1" stroke="none" stroke-width="1" fill="none" fill-rule="evenodd">
        <g id="Card-5" transform="translate(-342.000000, -649.000000)" fill="#4F5362">
            <g id="Testimonials-" transform="translate(146.000000, 568.000000)">
                <g id="Testimonial-1">
                    <g id="Socials" transform="translate(118.000000, 81.000000)">
                        <path d="M85.5,15 C81.364,15 78,11.636 78,7.5 C78,3.364 81.364,0 85.5,0 C89.636,0 93,3.364 93,7.5 C93,11.636 89.636,15 85.5,15 L85.5,15 Z M91.825,8.527 C91.606,8.457 89.842,7.931 87.835,8.253 C88.673,10.555 89.014,12.431 89.079,12.82 C90.517,11.849 91.54,10.309 91.825,8.527 L91.825,8.527 Z M88.002,13.407 C87.907,12.845 87.535,10.886 86.636,8.549 C86.622,8.554 86.608,8.558 86.593,8.563 C82.98,9.822 81.683,12.328 81.568,12.564 C82.654,13.411 84.019,13.916 85.5,13.916 C86.387,13.916 87.233,13.735 88.002,13.407 L88.002,13.407 Z M80.74,11.793 C80.886,11.545 82.644,8.634 85.948,7.566 C86.031,7.539 86.116,7.513 86.2,7.489 C86.039,7.125 85.864,6.761 85.681,6.402 C82.482,7.36 79.377,7.32 79.097,7.314 C79.095,7.379 79.094,7.444 79.094,7.51 C79.094,9.155 79.717,10.657 80.74,11.793 L80.74,11.793 Z M79.229,6.198 C79.515,6.201 82.155,6.213 85.151,5.417 C84.09,3.53 82.945,1.944 82.776,1.712 C80.984,2.557 79.644,4.21 79.229,6.198 L79.229,6.198 Z M83.999,1.281 C84.176,1.518 85.339,3.103 86.389,5.032 C88.667,4.178 89.631,2.882 89.747,2.718 C88.615,1.714 87.128,1.103 85.5,1.103 C84.983,1.103 84.48,1.165 83.999,1.281 L83.999,1.281 Z M90.459,3.458 C90.324,3.641 89.25,5.017 86.882,5.984 C87.031,6.29 87.174,6.6 87.307,6.912 C87.354,7.023 87.4,7.133 87.445,7.243 C89.576,6.975 91.694,7.404 91.906,7.449 C91.891,5.937 91.351,4.549 90.459,3.458 L90.459,3.458 Z" id="Dribbble"></path>
                    </g>
                </g>
            </g>
        </g>
    </g>
</svg>