<?xml version="1.0" encoding="UTF-8"?>
<svg width="24px" height="15px" viewBox="0 0 24 15" version="1.1" xmlns="http://www.w3.org/2000/svg" xmlns:xlink="http://www.w3.org/1999/xlink">
    <title>Google +</title>
    <g id="Page-1" stroke="none" stroke-width="1" fill="none" fill-rule="evenodd">
        <g id="Card-5" transform="translate(-301.000000, -649.000000)" fill="#4F5362">
            <g id="Testimonials-" transform="translate(134.000000, 565.000000)">
                <g id="Testimonial-1">
                    <g id="Socials" transform="translate(130.000000, 84.000000)">
                        <path d="M58.35,8.069 L58.35,10.68 L56.422,10.68 L56.422,8.069 L53.772,8.069 L53.772,6.171 L56.422,6.171 L56.422,3.56 L58.35,3.56 L58.35,6.171 L61,6.171 L61,8.069 L58.35,8.069 L58.35,8.069 Z M44.615,14.999 C40.41,14.999 37.001,11.642 37.001,7.5 C37.001,3.358 40.41,0.001 44.615,0.001 C46.595,0.001 48.398,0.746 49.752,1.966 L47.508,4.13 C46.727,3.479 45.718,3.086 44.615,3.086 C42.14,3.086 40.133,5.062 40.133,7.5 C40.133,9.938 42.14,11.914 44.615,11.914 C46.53,11.914 48.164,10.731 48.806,9.066 L44.519,9.066 L44.519,5.934 L48.806,5.934 L52.037,5.934 L52.063,5.934 C52.172,6.439 52.229,6.963 52.229,7.5 C52.229,11.642 48.82,14.999 44.615,14.999 L44.615,14.999 Z" id="Google-+"></path>
                    </g>
                </g>
            </g>
        </g>
    </g>
</svg>