<?xml version="1.0" encoding="UTF-8"?>
<svg width="17px" height="14px" viewBox="0 0 17 14" version="1.1" xmlns="http://www.w3.org/2000/svg" xmlns:xlink="http://www.w3.org/1999/xlink">
    <title>Twitter</title>
    <g id="Page-1" stroke="none" stroke-width="1" fill="none" fill-rule="evenodd">
        <g id="Card-5" transform="translate(-264.000000, -650.000000)" fill="#4F5362">
            <g id="Testimonials-" transform="translate(146.000000, 568.000000)">
                <g id="Testimonial-1">
                    <g id="Socials" transform="translate(118.000000, 81.000000)">
                        <path d="M17,2.658 C16.375,2.939 15.702,3.129 14.997,3.215 C15.717,2.777 16.27,2.085 16.53,1.26 C15.856,1.665 15.11,1.959 14.315,2.117 C13.679,1.43 12.773,1.001 11.77,1.001 C9.844,1.001 8.282,2.583 8.282,4.535 C8.282,4.813 8.313,5.082 8.373,5.341 C5.475,5.194 2.905,3.786 1.186,1.648 C0.886,2.17 0.714,2.777 0.714,3.425 C0.714,4.651 1.33,5.733 2.265,6.366 C1.693,6.348 1.155,6.189 0.686,5.924 L0.686,5.969 C0.686,7.681 1.887,9.109 3.483,9.434 C3.19,9.515 2.883,9.558 2.564,9.558 C2.34,9.558 2.121,9.536 1.908,9.494 C2.352,10.898 3.64,11.92 5.166,11.949 C3.972,12.896 2.468,13.461 0.834,13.461 C0.553,13.461 0.275,13.445 0.002,13.412 C1.545,14.415 3.378,15 5.348,15 C11.762,15 15.27,9.615 15.27,4.945 C15.27,4.791 15.266,4.64 15.26,4.488 C15.941,3.99 16.533,3.367 17,2.659 L17,2.658 L17,2.658 Z" id="Twitter"></path>
                    </g>
                </g>
            </g>
        </g>
    </g>
</svg>