<?xml version="1.0" encoding="UTF-8"?>
<svg width="100px" height="30px" viewBox="0 0 100 30" version="1.1" xmlns="http://www.w3.org/2000/svg" xmlns:xlink="http://www.w3.org/1999/xlink">
    <title>Singleton Logo</title>
    <g id="Page-1" stroke="none" stroke-width="1" fill="none" fill-rule="evenodd">
        <g id="Card-5" transform="translate(-650.000000, -41.000000)">
            <g id="Logo" transform="translate(650.000000, 41.000000)" fill="#FFFFFF">
                <path d="M94.959608,19.5141221 C93.492338,19.4140175 93.0378127,17.8167351 92.9730039,16.1676441 C92.8727664,13.5903906 93.5787496,12.5682703 93.5580108,11.1606596 C93.5510979,10.661893 93.307417,10.2790369 92.4614469,10.192104 C91.1678644,10.0621437 89.8837871,12.4725562 89.6133186,14.4377669 C89.6167751,14.4948441 89.6193674,14.5527994 89.6219598,14.6098765 C89.6867685,15.9446041 90.2190644,16.8508138 90.2493084,17.5673518 C90.2760961,18.2118847 89.875146,18.6930891 88.3318337,19.3121568 C88.1469128,19.3832837 87.9619918,19.4289454 87.7978097,19.4210424 C87.0235612,19.3885524 86.7323539,18.3400887 86.6528552,16.7480749 C86.6390293,16.4863981 86.6260676,16.2343804 86.61397,15.9876315 C86.0989565,16.4986916 85.3566803,16.7419281 84.5383619,16.6936321 C83.9965608,16.661142 83.4979655,16.5803559 83.0201091,16.4477612 C81.9926745,17.8176132 80.4830628,18.8968106 78.6191633,18.8511489 C76.0216288,18.7931936 74.4342467,17.2450853 73.6608623,15.4072006 C72.5945425,17.0396075 70.5880637,18.5350292 68.8434124,18.5754223 C67.6137745,18.5806909 66.8810036,16.8903288 66.4774611,14.7793518 C65.7533314,16.5188881 63.9075784,18.6219621 60.1270683,18.7756314 C58.5215397,18.8353429 56.9341576,17.9862103 56.1089262,16.2774078 C55.2275273,17.6858966 53.854446,18.8555394 52.3958172,18.9442286 C50.3210733,19.0697983 48.3327411,17.9475735 47.3597458,15.5643823 C46.5941385,17.6551628 44.8365253,20.2455879 42.5397035,21.9693183 C41.8898878,25.671431 41.0162659,29.5157975 37.5667125,29.6738574 C37.310934,29.6852728 37.0612043,29.6606857 36.8192517,29.6018523 C36.5764349,29.5438971 36.3431234,29.4516955 36.1193172,29.3305163 C35.6725689,29.089036 35.2681624,28.730767 34.9251081,28.2855651 C34.2407278,27.3969176 33.8069412,26.1649289 33.7810177,24.8407387 C33.7144808,21.9078506 36.5358214,21.7348629 40.023396,20.3676453 C40.1331388,19.6396919 40.2109093,18.9038355 40.2843592,18.2189095 C39.556773,19.2331268 38.5077355,19.9645927 36.9687438,20.0892843 C35.2318695,20.2359287 33.8631088,19.1382909 33.2055161,17.386461 C32.3051066,19.0179898 30.7721638,20.4712623 29.1752763,20.6416156 C27.653567,20.7900163 27.1333688,18.9415942 26.9527685,17.0589259 C26.6650176,14.1207691 27.231014,12.8694621 27.0106643,11.371406 C26.9294373,10.845418 26.6278606,10.5038331 25.7844828,10.6039377 C24.5125032,10.7488259 23.561975,13.6026841 23.4029775,15.8655741 C23.4098905,15.9287981 23.4168034,15.9929001 23.4237163,16.0561241 C23.5792573,17.5269587 24.1677207,18.4463401 24.2316653,19.2638607 C24.2869688,19.9962046 23.8920675,20.6468843 22.3150547,21.6198304 C22.1266773,21.7331066 21.9365717,21.815649 21.7663407,21.8349674 C20.9644405,21.9280471 20.6352121,20.8189939 20.4926329,19.0803357 C20.4736223,18.85993 20.4546117,18.6491835 20.4364653,18.4393152 C19.5680281,20.2166103 17.8968266,21.8938008 16.1495829,22.1115722 C14.2467982,22.3407589 13.5477279,19.9505429 13.2686182,17.2591351 C12.9877803,14.0680825 13.1614677,9.19369268 14.897478,8.94606559 C15.9171355,8.79415253 16.6516346,10.5064675 16.7389104,11.0781172 C17.0646824,13.2865644 16.2930263,16.4249304 16.4261002,17.911571 C16.4779472,18.4559993 16.8944514,18.7071388 17.3567538,18.6439149 C18.1284099,18.5183451 19.4496441,16.2045247 20.174638,15.2710935 C20.0147764,12.7447704 20.1262474,10.9033733 21.0741833,8.73005048 C21.2979895,8.20845301 21.5736427,7.97838813 21.887317,7.93887317 C22.5630562,7.85369648 23.3926081,8.70370717 23.8333076,9.3930237 C24.3638752,8.63345835 25.1839218,8.02404986 26.460222,7.87916167 C28.6265623,7.64207191 29.9858177,8.55267221 30.2718403,10.2992334 C30.6676057,12.6727654 29.958166,15.4774494 30.0584035,16.5987962 C30.0886476,16.9105253 30.1759233,17.07561 30.3694855,17.0554135 C31.01066,16.9605776 32.0208122,15.3343175 32.7518549,14.270926 C32.7570396,12.6262255 33.0724421,11.0333336 33.8268159,9.77061109 C34.7099431,8.31558245 36.2109136,6.95275539 38.2104794,6.80611098 C39.1255788,6.7384965 40.4485413,6.90884988 41.0292277,7.15647696 C41.1216881,6.32051603 41.5157253,6.08869493 41.9253166,6.06322973 C42.8913989,6.00088391 44.0968415,7.69827097 44.1910303,8.28045805 C44.4122441,9.54669299 43.944757,13.8476769 43.2249479,18.1925662 C45.1743949,15.9138702 46.1240591,13.7985027 46.7496795,12.8483874 C46.0601144,6.45398878 47.6595942,0.263311719 52.6991222,0.000756762437 C54.1041757,-0.0273427647 55.0633451,0.728710136 55.2508584,1.99757941 C55.6518085,4.81016645 52.4113713,7.1766735 49.9953014,11.4609733 C50.0419637,11.8043144 50.0860336,12.1529241 50.1301036,12.5059244 C50.3694638,14.4755257 51.3078945,15.4607653 52.5064242,15.4036882 C53.9304883,15.3457329 54.8300337,14.3833241 55.4962676,13.3594476 C55.2871513,8.66770465 57.6392767,6.01493367 60.8425569,5.96839383 C62.6615223,5.97717493 63.785738,6.90270311 63.9654742,8.2251371 C64.3405008,11.0429928 61.3160928,11.4767793 58.9302669,12.7913103 C58.9553263,13.012594 58.9795215,13.2365121 59.0028527,13.4621865 C59.1575295,14.9619987 60.5867784,15.3097304 61.4707696,15.2939244 C64.1953292,15.2175288 65.4966888,12.7544296 66.1516892,12.1160435 C66.068734,10.7874627 66.0868804,9.40882968 66.2156338,8.14435096 C65.853569,8.13732608 65.4915041,8.1303012 65.1303034,8.12415443 C64.9367413,8.1215201 64.8278626,8.02492797 64.808852,7.88443034 C64.7077504,7.13276799 64.7276251,6.76396169 65.2020251,6.15279698 C65.5174276,6.15806564 65.9788659,6.16684674 66.5102976,6.15543131 C66.9172965,4.10943449 67.6034051,2.68162727 68.4934451,2.69918947 C69.5554444,2.727289 69.9356557,3.6291082 70.2847588,4.59590755 C70.0091056,5.13331101 69.7386371,5.67071447 69.4724892,6.21250847 C70.5941126,6.27046375 71.3510787,6.32315036 71.886831,6.3433469 C72.1296477,6.35300611 72.1642124,6.44608579 72.1944565,6.72356862 C72.2264288,7.02124799 72.0579261,8.31646056 71.6967253,8.30504513 C71.3104652,8.29011726 69.967628,8.12503254 69.2668295,8.10395789 C69.1769614,9.88915597 69.2478189,12.2126356 69.3506488,13.3638381 C69.456071,14.4720132 69.6790131,15.2342129 70.0600885,15.2386034 C70.6070743,15.2394816 72.3767851,14.0250551 73.1069636,13.0090816 C72.8425439,9.23320764 74.9950583,6.35300611 79.0676398,6.56638689 C80.8796923,6.67527256 82.7548253,7.50508672 82.7954388,8.18562214 C82.8084005,8.3972467 82.3340005,8.52369458 80.9280828,8.42710245 C78.127481,8.25235852 76.3188849,10.0322879 76.5876252,12.9950318 C76.7181068,14.4957222 77.6332063,15.8137656 79.3355159,15.8875269 C80.0216245,15.9191389 80.6014467,15.7593228 81.0758468,15.4440812 C79.9602722,14.5703616 79.2491043,13.2883206 79.1238074,11.8122174 C78.9967822,10.3563106 79.9637287,8.80117741 82.0505703,8.94957803 C83.6258548,9.06548858 84.4657761,10.2289846 84.5625572,11.7270407 C84.6152683,12.526121 84.4830585,13.394572 84.18321,14.2524857 C84.2307364,14.2559981 84.2782628,14.2595105 84.3257892,14.263023 C85.6427029,14.3517121 86.1162388,13.5631691 86.5171889,13.1724101 C86.5145965,10.8963484 86.8230862,9.25164795 88.0838323,7.44274089 C88.3905937,6.99929523 88.7094527,6.83860106 89.0291758,6.86670059 C89.719605,6.92641208 90.3901594,7.90813931 90.7176596,8.64750812 C91.3640188,8.04951506 92.3007212,7.63943758 93.6046731,7.7693979 C95.8245887,7.98980356 96.9522608,9.18052102 96.9254732,10.8708832 C96.8900444,13.1732882 95.9654397,15.4168598 95.9956837,16.3678532 C96.0034608,16.6339206 96.0777748,16.7867118 96.264424,16.8051521 C97.1631052,16.8797914 99.2041486,14.2498513 99.6690433,14.3148315 C99.7874273,14.3297594 99.8695184,14.4114236 99.9222295,14.5563118 C99.9490171,14.6291949 99.9680277,14.7178841 99.9809894,14.8223792 C99.9870383,14.8750658 99.9913588,14.9312649 99.9948153,14.9909764 C99.9982718,15.0506879 100,15.1147899 100,15.1832825 C99.9956794,17.2064485 97.4966542,19.6502292 94.959608,19.5141221 L94.959608,19.5141221 Z M35.9957485,25.1120748 C36.0078462,26.1640508 36.9860262,26.6795015 37.5839948,26.6408647 C38.3012116,26.6004716 38.9112779,25.2481819 39.3830856,23.5472824 C37.0681172,24.3858776 35.9862433,24.3551438 35.9957485,25.1120748 L35.9957485,25.1120748 Z M36.2817711,14.6581726 C36.4018833,15.7285889 36.7872793,16.8139332 37.8691533,16.7234878 C38.9000444,16.6462141 40.0138907,15.6319968 40.408792,13.6263931 C40.5289042,11.9351528 40.7613515,9.64065078 40.9194849,8.19352513 C38.5630389,8.71073205 35.8419358,10.8331245 36.2817711,14.6581726 L36.2817711,14.6581726 Z M52.7233174,2.74309499 C52.668014,2.40414444 52.5211141,2.24784082 52.2281786,2.25398759 C51.1687717,2.30491798 49.8881509,4.40184519 49.8484015,8.35246308 C51.474669,5.00861936 52.9488519,4.16387732 52.7233174,2.74309499 L52.7233174,2.74309499 Z M61.0369831,8.63258024 C60.9868643,8.27431127 60.7112112,8.03809962 60.205703,8.03809962 C59.2396206,8.04073395 58.9173051,9.40356102 58.8827405,11.0008435 C60.1046013,10.0559969 61.1743776,9.61781991 61.0369831,8.63258024 L61.0369831,8.63258024 Z M82.8974045,11.721772 C82.8680246,11.3081821 82.6960654,10.9130325 82.3123976,10.8858111 C82.0246468,10.8647364 81.8492311,11.379309 81.8786111,11.7700681 C81.9270016,12.4049418 82.1836442,12.9906413 82.6174307,13.4437462 C82.8585193,12.836972 82.9328333,12.207367 82.8974045,11.721772 L82.8974045,11.721772 Z M15.1549847,6.90533744 C15.1541206,6.90533744 14.2951887,6.01844611 13.9728732,4.70830566 C13.7654852,3.82843922 13.8622663,1.60682036 14.9363632,1.46807894 C16.0000907,1.33899674 17.2763909,3.22254317 17.4111931,3.80999891 C17.8795443,5.74711005 16.4079538,6.72444673 15.1549847,6.90533744 L15.1549847,6.90533744 Z M5.62377876,23.6184093 C2.92082208,23.9810688 0.33538525,22.8044011 0.0182544629,19.425433 C0.00615683068,19.2954727 0.000108014573,19.162878 0.000108014573,19.0285272 C-0.000756102013,18.8950544 0.00356448092,18.7580692 0.0130697634,18.621084 C0.0329444449,18.3462355 0.0718296913,18.0669965 0.129725503,17.7895136 C0.244653009,17.2336699 0.432166308,16.684851 0.674118952,16.1922311 C1.15888836,15.2069915 1.86573573,14.4456699 2.6564024,14.2999036 C2.97439731,14.2419483 3.54557837,14.1892617 3.61125123,14.6897846 C3.75296635,15.7663477 3.3753474,16.8376422 3.50755724,18.1398796 C3.62680533,19.313913 4.14181881,20.3105681 5.54600827,20.0857719 C7.07030993,19.8460478 8.4079624,18.8397335 8.20057442,16.8973537 C7.76246731,13.3287137 2.80848692,13.5561443 1.96683737,9.2815037 C1.30060348,6.24324233 3.07636306,4.28505654 5.64970226,3.88815071 C7.65704509,3.57466537 9.80437481,4.44750693 10.3824688,6.96856137 C10.7428054,8.55530654 9.79659776,10.0814621 8.07614163,10.6759427 C9.96337226,11.7832397 11.8877599,12.725452 12.2731559,15.9481165 C12.7199042,19.9426399 9.02839811,23.1863791 5.62377876,23.6184093 L5.62377876,23.6184093 Z M8.07873398,7.23111633 C7.89467715,6.43379225 7.00982177,6.14665021 6.15693869,6.28451351 C5.42589606,6.40305839 4.74583631,6.81928264 4.49092192,7.44537522 C5.2090028,8.766053 6.21310627,9.55108354 7.26473616,10.2061538 C7.80394491,9.45800385 8.29217078,8.14874151 8.07873398,7.23111633 L8.07873398,7.23111633 Z M3.27078929,28.0388161 C8.0433052,27.0711387 21.6678314,25.1928609 26.6961258,25.0128483 C29.7810221,24.9109875 30.9985623,25.2955998 31.0642352,26.7207727 C31.0789252,27.0263551 30.855119,27.4074549 29.9728559,27.4373106 C20.8158125,27.7622114 6.60195874,29.9434372 2.65985887,29.9987582 C2.59072954,29.9996363 2.52160021,30.0005144 2.453335,29.9996363 C2.38420568,29.9996363 2.31594047,29.9978801 2.24853937,29.9952457 C2.11200895,29.9908552 1.978935,29.9820741 1.84931751,29.9706586 C1.59008253,29.9478278 1.34812989,29.9118253 1.13987779,29.8652854 C0.724237714,29.7739619 0.445128057,29.6422454 0.442535707,29.4929667 C0.428709842,28.7632571 1.93313682,28.3180552 3.27078929,28.0388161 L3.27078929,28.0388161 Z M44.7492496,25.5028338 C44.7985042,25.3623362 44.88578,25.233254 45.011941,25.113831 C45.2642631,24.8732288 45.6729902,24.6712634 46.2579971,24.4912509 C47.4262828,24.1329819 49.303144,23.8519866 52.0251112,23.5745038 C56.4900016,23.1328143 64.7155274,22.6445851 72.717247,22.6410726 C76.7215633,22.6296572 80.6766249,22.7201025 84.1279065,22.8588439 C87.5791882,22.9967073 90.5292822,23.1740855 92.5271198,23.3242424 C94.7850564,23.5139142 97.3350644,23.8203746 97.4197479,24.4640294 C97.4517202,24.7327312 95.6457165,25.0558757 93.8224305,25.1445649 C87.3225456,25.5230304 63.4012061,24.7819053 46.8447323,26.3466978 C46.6451214,26.3668943 46.4619286,26.3809441 46.2951541,26.3897252 C46.1283796,26.3976281 45.9771592,26.4002625 45.8406288,26.39675 C45.567568,26.3906033 45.3541312,26.3633818 45.189949,26.3212326 C44.8615847,26.236934 44.7311031,26.093802 44.7103643,25.9550606 C44.7043155,25.9146675 44.700859,25.8751526 44.6999949,25.8356376 C44.6982667,25.7970008 44.6991308,25.7583639 44.7025873,25.7206052 C44.7086361,25.6450877 44.7241902,25.5722045 44.7492496,25.5028338 L44.7492496,25.5028338 Z" id="Singleton"></path>
            </g>
        </g>
    </g>
</svg>